<svg width="224" height="82" viewBox="0 0 224 82" fill="none" xmlns="http://www.w3.org/2000/svg">
<path d="M112.71 53.7346C110.964 53.7346 109.393 53.4352 107.996 52.8366C106.599 52.213 105.502 51.3399 104.703 50.2175C103.905 49.095 103.506 47.7854 103.506 46.2888H108.071C108.171 47.4112 108.607 48.3342 109.38 49.0576C110.179 49.7809 111.289 50.1426 112.71 50.1426C114.182 50.1426 115.33 49.7934 116.153 49.095C116.976 48.3716 117.387 47.4487 117.387 46.3262C117.387 45.4531 117.126 44.7422 116.602 44.1935C116.103 43.6447 115.467 43.2206 114.694 42.9213C113.945 42.622 112.898 42.2977 111.551 41.9485C109.854 41.4995 108.47 41.0505 107.397 40.6015C106.35 40.1276 105.452 39.4042 104.703 38.4314C103.955 37.4585 103.581 36.1615 103.581 34.5401C103.581 33.0434 103.955 31.7339 104.703 30.6114C105.452 29.4889 106.499 28.6283 107.846 28.0297C109.193 27.431 110.752 27.1317 112.523 27.1317C115.043 27.1317 117.101 27.7678 118.697 29.0399C120.318 30.2871 121.216 32.0083 121.391 34.2033H116.677C116.602 33.2555 116.153 32.4448 115.33 31.7713C114.506 31.0978 113.421 30.7611 112.074 30.7611C110.852 30.7611 109.854 31.0729 109.081 31.6965C108.308 32.3201 107.921 33.218 107.921 34.3904C107.921 35.1886 108.158 35.8496 108.632 36.3735C109.131 36.8724 109.755 37.2715 110.503 37.5708C111.251 37.8701 112.274 38.1944 113.571 38.5436C115.292 39.0175 116.689 39.4915 117.762 39.9654C118.859 40.4394 119.782 41.1752 120.53 42.173C121.304 43.1458 121.69 44.4554 121.69 46.1017C121.69 47.4237 121.329 48.6709 120.605 49.8433C119.907 51.0157 118.872 51.9635 117.5 52.6869C116.153 53.3854 114.556 53.7346 112.71 53.7346ZM131.7 36.3361V47.748C131.7 48.5213 131.874 49.0825 132.224 49.4317C132.598 49.756 133.221 49.9181 134.094 49.9181H136.713V53.4727H133.346C131.425 53.4727 129.954 53.0237 128.931 52.1257C127.908 51.2277 127.397 49.7685 127.397 47.748V36.3361H124.965V32.8564H127.397V27.7303H131.7V32.8564H136.713V36.3361H131.7ZM149.587 53.8094C147.642 53.8094 145.883 53.3729 144.312 52.4998C142.74 51.6018 141.505 50.3546 140.607 48.7582C139.709 47.1369 139.26 45.266 139.26 43.1458C139.26 41.0505 139.722 39.1922 140.645 37.5708C141.568 35.9494 142.827 34.7022 144.424 33.8292C146.02 32.9561 147.804 32.5196 149.774 32.5196C151.745 32.5196 153.528 32.9561 155.125 33.8292C156.721 34.7022 157.981 35.9494 158.904 37.5708C159.827 39.1922 160.288 41.0505 160.288 43.1458C160.288 45.2411 159.814 47.0994 158.866 48.7208C157.919 50.3422 156.622 51.6018 154.975 52.4998C153.354 53.3729 151.558 53.8094 149.587 53.8094ZM149.587 50.1052C150.685 50.1052 151.708 49.8433 152.655 49.3195C153.628 48.7956 154.414 48.0099 155.013 46.9622C155.611 45.9146 155.911 44.6424 155.911 43.1458C155.911 41.6492 155.624 40.3895 155.05 39.3668C154.476 38.3191 153.716 37.5334 152.768 37.0095C151.82 36.4857 150.797 36.2238 149.7 36.2238C148.602 36.2238 147.579 36.4857 146.631 37.0095C145.708 37.5334 144.973 38.3191 144.424 39.3668C143.875 40.3895 143.601 41.6492 143.601 43.1458C143.601 45.3658 144.162 47.087 145.284 48.3092C146.432 49.5065 147.866 50.1052 149.587 50.1052ZM168.77 35.8496C169.394 34.802 170.217 33.9913 171.24 33.4176C172.287 32.8189 173.522 32.5196 174.944 32.5196V36.9347H173.859C172.188 36.9347 170.916 37.3588 170.043 38.2069C169.194 39.055 168.77 40.5267 168.77 42.622V53.4727H164.505V32.8564H168.77V35.8496ZM197.76 42.6594C197.76 43.4327 197.71 44.1311 197.61 44.7547H181.858C181.983 46.401 182.594 47.723 183.692 48.7208C184.789 49.7186 186.136 50.2175 187.732 50.2175C190.027 50.2175 191.649 49.2571 192.597 47.3364H197.199C196.575 49.2322 195.44 50.7912 193.794 52.0134C192.173 53.2107 190.152 53.8094 187.732 53.8094C185.762 53.8094 183.991 53.3729 182.419 52.4998C180.873 51.6018 179.651 50.3546 178.753 48.7582C177.88 47.1369 177.443 45.266 177.443 43.1458C177.443 41.0255 177.867 39.1672 178.715 37.5708C179.588 35.9494 180.798 34.7022 182.345 33.8292C183.916 32.9561 185.712 32.5196 187.732 32.5196C189.678 32.5196 191.412 32.9437 192.933 33.7918C194.455 34.6399 195.64 35.8372 196.488 37.3837C197.336 38.9053 197.76 40.6639 197.76 42.6594ZM193.307 41.3124C193.283 39.7409 192.721 38.4813 191.624 37.5334C190.526 36.5855 189.167 36.1116 187.545 36.1116C186.074 36.1116 184.814 36.5855 183.766 37.5334C182.719 38.4563 182.095 39.716 181.896 41.3124H193.307ZM206.223 27.4684V53.4727H201.958V27.4684H206.223ZM216.8 36.3361V47.748C216.8 48.5213 216.974 49.0825 217.323 49.4317C217.698 49.756 218.321 49.9181 219.194 49.9181H221.813V53.4727H218.446C216.525 53.4727 215.053 53.0237 214.031 52.1257C213.008 51.2277 212.497 49.7685 212.497 47.748V36.3361H210.065V32.8564H212.497V27.7303H216.8V32.8564H221.813V36.3361H216.8Z" fill="white"/>
<rect opacity="0.2" width="74.8323" height="74.8323" rx="37.4161" fill="white"/>
<rect x="32.7383" y="31.1797" width="49.8882" height="49.8882" rx="24.9441" fill="white"/>
</svg>
