<svg width="20" height="20" viewBox="0 0 20 20" fill="none" xmlns="http://www.w3.org/2000/svg">
<path d="M15.6273 17.2771H11.3363V12.9412H12.7544C13.114 12.9412 13.3265 12.5325 13.114 12.2383L10.3555 8.42138C10.1798 8.17618 9.8161 8.17618 9.64037 8.42138L6.8819 12.2383C6.66939 12.5325 6.87781 12.9412 7.24152 12.9412H8.65958V17.2771H3.8537C1.70821 17.1586 0 15.1521 0 12.978C0 11.4782 0.813241 10.1705 2.0188 9.46347C1.90846 9.16515 1.85125 8.84639 1.85125 8.51129C1.85125 6.9788 3.0895 5.74055 4.62199 5.74055C4.953 5.74055 5.27176 5.79776 5.57009 5.9081C6.45689 4.02825 8.36943 2.72461 10.5926 2.72461C13.4696 2.7287 15.8398 4.93139 16.1095 7.73891C18.3204 8.11897 20 10.1664 20 12.4835C20 14.96 18.0711 17.1055 15.6273 17.2771Z" fill="white"/>
</svg>
